# xmcd
#
# Track frame offsets:
#	150
#	3677
#	12940
#	28635
#	43185
#	56037
#	66560
#	77229
#	92800
#	113030
#	121627
#	131932
#	149480
#	169227
#	178365
#	187567
#	202027
#	216034
#
# Disc length: 2926 seconds
#
# Revision: 0
# Processed by: cddbd v1.4PL0 Copyright (c) Steve Scherf et al.
# Submitted via: dBpowerAMP V4.0
#
DISCID=0c0b6c12
DTITLE=wd - recifrevo
DYEAR=1900
DGENRE=
TTITLE0=01 - Recifrevo
TTITLE1=02 - Trancedental
TTITLE2=03 - O tocador quer beber
TTITLE3=04 - Revendo Olinda
TTITLE4=05 - Esse meu maracatu: 500 anos depois
TTITLE5=06 - Arame farpado
TTITLE6=07 - Sol na moleira
TTITLE7=08 - Sonho do poeta
TTITLE8=09 - Batuque rei
TTITLE9=10 - Pegando fogo
TTITLE10=11 - Um frevo prá ela
TTITLE11=12 - Recifloração
TTITLE12=13 - Maracatu memória guerreira
TTITLE13=14 - Don Ratão
TTITLE14=15 - Lá vai frevo
TTITLE15=16 - Pra voce, vava
TTITLE16=17 - Relembrando zumbi
TTITLE17=18 - Recifrevo
EXTD=
EXTT0=
EXTT1=
EXTT2=
EXTT3=
EXTT4=
EXTT5=
EXTT6=
EXTT7=
EXTT8=
EXTT9=
EXTT10=
EXTT11=
EXTT12=
EXTT13=
EXTT14=
EXTT15=
EXTT16=
EXTT17=
PLAYORDER=
